HIERARCHY
ROOT Hips
{
 OFFSET 0.000000 0.000000 0.000000
 CHANNELS 6 Xposition Yposition Zposition Yrotation Xrotation Zrotation
 JOINT Chest
 {
  OFFSET 0.000000 9.857222 0.000240
  CHANNELS 3 Yrotation Xrotation Zrotation
  JOINT Chest2
  {
   OFFSET 0.000000 10.876940 -0.000436
   CHANNELS 3 Yrotation Xrotation Zrotation
   JOINT Chest3
   {
    OFFSET 0.000000 9.827798 0.000000
    CHANNELS 3 Yrotation Xrotation Zrotation
    JOINT Chest4
    {
     OFFSET 0.000000 9.827798 0.000000
     CHANNELS 3 Yrotation Xrotation Zrotation
     JOINT Neck
     {
      OFFSET 0.000000 13.831992 0.000000
      CHANNELS 3 Yrotation Xrotation Zrotation
      JOINT Head
      {
       OFFSET 0.000000 9.147643 -0.001036
       CHANNELS 3 Yrotation Xrotation Zrotation
       End Site
       {
        OFFSET 0.000000 17.515799 -0.000541
       }
      }
     }
     JOINT RightCollar
     {
      OFFSET -3.001579 7.717577 0.000000
      CHANNELS 3 Yrotation Xrotation Zrotation
      JOINT RightShoulder
      {
       OFFSET -14.002642 0.000000 0.000000
       CHANNELS 3 Yrotation Xrotation Zrotation
       JOINT RightElbow
       {
        OFFSET -30.053852 0.000000 0.000000
        CHANNELS 3 Yrotation Xrotation Zrotation
        JOINT RightWrist
        {
         OFFSET -24.564923 0.000000 -0.000000
         CHANNELS 3 Yrotation Xrotation Zrotation
         End Site
         {
          OFFSET -18.334355 0.000000 0.000000
         }
        }
       }
      }
     }
     JOINT LeftCollar
     {
      OFFSET 3.001579 7.717577 0.000000
      CHANNELS 3 Yrotation Xrotation Zrotation
      JOINT LeftShoulder
      {
       OFFSET 14.002642 0.000000 0.000000
       CHANNELS 3 Yrotation Xrotation Zrotation
       JOINT LeftElbow
       {
        OFFSET 30.053852 0.000000 0.000000
        CHANNELS 3 Yrotation Xrotation Zrotation
        JOINT LeftWrist
        {
         OFFSET 24.564923 0.000000 -0.000000
         CHANNELS 3 Yrotation Xrotation Zrotation
         End Site
         {
          OFFSET 18.334355 0.000000 0.000000
         }
        }
       }
      }
     }
    }
   }
  }
 }
 JOINT RightHip
 {
  OFFSET -8.003235 -0.001175 -0.000120
  CHANNELS 3 Yrotation Xrotation Zrotation
  JOINT RightKnee
  {
   OFFSET 0.000000 -41.759727 0.000113
   CHANNELS 3 Yrotation Xrotation Zrotation
   JOINT RightAnkle
   {
    OFFSET 0.000000 -40.728748 0.000159
    CHANNELS 3 Yrotation Xrotation Zrotation
    JOINT RightToe
    {
     OFFSET 0.000000 -6.515296 14.732841
     CHANNELS 3 Yrotation Xrotation Zrotation
     End Site
     {
      OFFSET 0.000000 -1.502839 6.412115
     }
    }
   }
  }
 }
 JOINT LeftHip
 {
  OFFSET 8.003235 -0.001175 -0.000120
  CHANNELS 3 Yrotation Xrotation Zrotation
  JOINT LeftKnee
  {
   OFFSET 0.000000 -41.759727 0.000113
   CHANNELS 3 Yrotation Xrotation Zrotation
   JOINT LeftAnkle
   {
    OFFSET 0.000000 -40.728748 0.000159
    CHANNELS 3 Yrotation Xrotation Zrotation
    JOINT LeftToe
    {
     OFFSET 0.000000 -6.515296 14.732841
     CHANNELS 3 Yrotation Xrotation Zrotation
     End Site
     {
      OFFSET 0.000000 -1.502839 6.412115
     }
    }
   }
  }
 }
}
MOTION
Frames: 5
Frame Time: 0.016667
-14.542300 44.707928 103.214300 155.977500 74.960594 178.341832 -2.102876 -2.623429 3.061545 -0.900308 -1.190623 1.373340 -0.900308 -1.190623 1.373340 -0.672535 -0.894998 1.028217 4.233721 24.737039 0.187828 7.539064 9.835131 -0.694748 12.358096 3.053175 9.430452 32.243392 19.869965 21.974437 56.800321 51.257111 -42.884978 -20.579918 13.567124 -57.765717 -10.961465 3.420878 -10.509511 7.528536 14.282911 -7.924730 -91.565386 29.664443 35.833849 9.875690 8.470832 61.170146 -13.264191 -28.209710 -4.286390 -18.699195 7.419719 -17.464593 -28.410222 -17.329382 9.372821 -0.058166 0.051301 -0.114226 -32.665520 -23.060732 14.024882 0.913888 9.848596 -19.500829 -41.618250 -35.749329 2.451755 -0.258800 -0.234078 -0.219850
-14.427143 44.740526 103.308487 155.638282 74.814416 177.876870 -2.111541 -2.526323 3.063589 -0.922295 -1.127111 1.359283 -0.922295 -1.127111 1.359283 -0.689196 -0.847392 1.017731 4.247319 24.557590 0.283241 7.543487 9.497111 -0.536734 12.578094 3.027606 9.555306 31.355446 19.741678 22.105033 57.155831 51.785232 -43.401698 -20.640689 13.644361 -57.821488 -10.736068 3.596998 -10.557889 7.421536 14.388562 -8.503432 -91.472889 30.568575 36.606018 9.850632 8.468871 61.153767 -13.282338 -28.187945 -4.205666 -18.728319 7.438366 -17.414094 -28.721480 -17.481356 9.513657 0.055834 0.095238 -0.056895 -32.748634 -23.010479 14.180136 0.954585 9.862074 -19.506679 -41.668365 -35.754665 2.618703 -0.268189 -0.272921 -0.220032
-14.235487 44.796695 103.462871 155.466674 74.548266 177.589485 -2.035587 -2.356663 3.168364 -0.903611 -1.031466 1.401404 -0.903611 -1.031466 1.401404 -0.675328 -0.775678 1.049502 4.164577 24.255412 0.197974 7.422215 8.938211 -0.684951 12.700548 2.767520 9.523787 30.577367 20.436087 22.016111 56.893150 51.793951 -44.723241 -20.746367 13.691139 -57.947942 -10.557529 3.141323 -10.643600 7.887728 14.021278 -8.532845 -92.358313 30.927822 36.396334 9.825585 8.462696 61.149655 -13.529762 -28.287589 -4.030524 -18.784882 7.318891 -17.283969 -28.684281 -17.597746 9.558085 0.142483 0.103554 -0.010863 -32.987056 -23.049422 14.458459 0.929411 9.789461 -19.587835 -41.463210 -35.699675 2.785521 -0.278385 -0.328206 -0.221874
-14.089582 44.904442 103.673406 155.697446 74.117575 177.764821 -2.027352 -2.149058 3.342784 -0.889917 -0.964506 1.473758 -0.889917 -0.964506 1.473758 -0.665101 -0.725532 1.103891 4.103303 23.929421 -0.007141 7.371105 8.343070 -1.054484 12.776089 2.228139 9.328421 29.981639 20.840365 21.631996 57.282028 51.726454 -44.928460 -20.781761 13.716406 -58.110035 -10.205723 2.484802 -10.753232 8.567445 13.796773 -8.442967 -93.467843 31.037790 36.261566 9.787886 8.456693 61.214586 -13.592743 -28.562941 -3.901201 -18.859983 7.223186 -17.191415 -28.582674 -17.750678 9.640013 0.107637 0.123130 -0.018809 -33.113376 -23.296830 14.670237 0.984275 9.722236 -19.565855 -41.269873 -35.659201 2.911747 -0.323273 -0.336411 -0.243880
-13.813653 45.005694 103.861993 156.378558 73.779005 178.427300 -2.042372 -2.112321 3.394689 -0.887569 -0.965008 1.485156 -0.887569 -0.965008 1.485156 -0.663320 -0.725920 1.112442 4.134848 23.799809 -0.030330 7.436776 8.105392 -1.110922 12.834685 2.167436 9.299356 29.245896 20.180856 20.966545 58.858313 51.924117 -43.619686 -20.782918 13.763036 -58.225390 -9.977471 2.587084 -10.893500 8.681512 14.222026 -8.892509 -93.324683 31.679665 37.241659 9.780100 8.449663 61.305272 -13.308550 -28.779033 -3.913868 -18.873606 7.245431 -17.185548 -28.738902 -17.868268 9.814865 0.067937 0.122977 -0.032462 -32.951168 -23.502437 14.721357 1.190950 9.713951 -19.466989 -41.372611 -35.645819 3.025599 -0.331386 -0.327289 -0.249651
